<?xml version="1.0" standalone="no"?>
<!DOCTYPE svg PUBLIC "-//W3C//DTD SVG 20010904//EN"
 "http://www.w3.org/TR/2001/REC-SVG-20010904/DTD/svg10.dtd">
<svg version="1.0" xmlns="http://www.w3.org/2000/svg"
 width="122.000000pt" height="123.000000pt" viewBox="0 0 122.000000 123.000000"
 preserveAspectRatio="xMidYMid meet">

<g transform="translate(0.000000,123.000000) scale(0.100000,-0.100000)"
fill="#000000" stroke="none">
<path d="M418 1196 c-130 -46 -244 -149 -307 -275 -56 -112 -66 -156 -66 -296
0 -116 3 -138 27 -203 64 -178 190 -312 349 -374 83 -32 228 -36 315 -9 132
40 225 110 302 225 72 108 93 176 99 321 4 91 1 136 -11 185 -44 176 -163 328
-314 403 -85 42 -87 42 -206 45 -107 2 -129 0 -188 -22z m200 -3 c-22 -5 -24
-50 -3 -76 17 -23 51 -18 47 6 -4 21 2 21 33 1 20 -13 22 -19 13 -34 -9 -14
-9 -55 1 -167 16 -202 1 -302 -64 -422 -18 -33 -20 -40 -6 -23 26 30 31 28 31
-10 0 -32 0 -32 34 22 53 85 77 168 82 289 3 58 7 125 10 148 l5 42 34 -16
c19 -9 36 -26 38 -37 4 -20 4 -19 6 2 1 15 -7 26 -24 34 -29 13 -32 37 -8 81
l18 32 3 -27 c3 -27 4 -28 32 -13 40 20 40 20 19 -22 -24 -50 -49 -170 -49
-239 0 -118 -47 -274 -106 -351 -26 -34 -77 -67 -88 -56 -3 4 -6 -8 -6 -26 l0
-32 -92 3 -93 3 -3 64 c-4 78 5 131 22 131 9 0 7 13 -9 47 -39 82 -50 150 -49
292 0 82 4 136 10 138 6 2 8 17 6 33 -5 33 -1 35 30 19 12 -7 7 3 -14 23 -19
20 -40 37 -47 39 -7 3 0 14 18 27 22 16 31 19 31 9 0 -16 29 -77 37 -77 3 0 2
7 -1 16 -3 9 3 27 14 41 25 32 27 80 3 86 -10 3 9 5 42 5 33 0 52 -2 43 -5z
m-280 -168 c17 -36 15 -55 -5 -72 -13 -10 -9 -10 15 2 l32 16 0 -33 c0 -18 5
-94 10 -168 11 -146 31 -237 61 -286 12 -20 19 -50 19 -83 l0 -52 -30 16 c-73
38 -118 183 -129 420 -4 88 -9 144 -11 125 l-2 -35 -9 44 c-5 24 -17 62 -27
83 -22 43 -22 44 18 23 28 -15 30 -14 30 5 0 28 14 25 28 -5z m125 -763 c27 6
104 7 170 4 145 -7 245 -7 272 1 16 4 14 0 -10 -27 -29 -31 -29 -32 -11 -46
11 -8 27 -14 35 -14 14 -1 14 -2 0 -10 -23 -13 -137 -14 -189 -2 -58 15 -212
15 -270 0 -50 -12 -165 -12 -188 1 -10 6 -6 11 17 21 17 7 31 15 31 18 0 3
-11 17 -25 32 l-24 25 72 -6 c40 -3 94 -2 120 3z"/>
<path d="M556 1075 c-9 -26 -7 -32 5 -12 6 10 9 21 6 23 -2 3 -7 -2 -11 -11z"/>
<path d="M649 1046 c8 -10 7 -24 -4 -56 -23 -66 -19 -98 16 -131 17 -16 26
-29 20 -29 -6 0 -11 -19 -11 -44 0 -25 -5 -57 -11 -73 -7 -15 -11 -39 -10 -52
3 -52 -58 -98 -107 -80 -12 5 -22 10 -22 11 0 2 -7 21 -16 43 -15 40 -15 40
-9 6 12 -77 64 -110 113 -74 39 28 70 97 84 186 l12 78 -32 29 c-37 33 -37 36
-17 110 15 56 12 90 -7 90 -7 0 -7 -5 1 -14z"/>
<path d="M566 1011 c-4 -5 3 -7 14 -4 23 6 26 13 6 13 -8 0 -17 -4 -20 -9z"/>
<path d="M520 958 c-12 -19 -24 -108 -14 -108 1 0 10 25 19 55 11 38 20 53 28
48 7 -4 7 0 -2 10 -17 21 -13 21 -31 -5z"/>
<path d="M521 853 c-1 -6 -3 -18 -6 -25 -4 -9 2 -14 14 -14 12 0 17 4 12 11
-5 5 -11 17 -14 25 -3 8 -6 10 -6 3z"/>
<path d="M492 810 c0 -14 2 -19 5 -12 2 6 2 18 0 25 -3 6 -5 1 -5 -13z"/>
<path d="M520 797 c0 -4 4 -15 9 -25 6 -9 12 -30 16 -45 5 -26 29 -46 41 -35
3 3 -7 27 -21 53 -14 26 -25 44 -25 39 0 -5 -5 -2 -10 6 -5 8 -10 12 -10 7z"/>
<path d="M825 780 c3 -5 8 -10 11 -10 2 0 4 5 4 10 0 6 -5 10 -11 10 -5 0 -7
-4 -4 -10z"/>
<path d="M590 770 c-1 -8 -1 -19 0 -25 1 -5 2 -36 1 -67 0 -31 4 -60 9 -63 6
-4 10 16 9 52 -1 58 -15 131 -19 103z"/>
<path d="M482 725 c0 -16 2 -22 5 -12 2 9 2 23 0 30 -3 6 -5 -1 -5 -18z"/>
<path d="M818 683 c7 -3 16 -2 19 1 4 3 -2 6 -13 5 -11 0 -14 -3 -6 -6z"/>
<path d="M790 596 c0 -2 7 -7 16 -10 8 -3 12 -2 9 4 -6 10 -25 14 -25 6z"/>
<path d="M770 530 c0 -5 7 -7 15 -4 8 4 15 8 15 10 0 2 -7 4 -15 4 -8 0 -15
-4 -15 -10z"/>
<path d="M758 503 c6 -2 18 -2 25 0 6 3 1 5 -13 5 -14 0 -19 -2 -12 -5z"/>
<path d="M740 480 c0 -6 7 -10 15 -10 8 0 15 2 15 4 0 2 -7 6 -15 10 -8 3 -15
1 -15 -4z"/>
<path d="M591 343 c-10 -26 -10 -27 4 -9 8 11 15 23 15 28 0 15 -7 8 -19 -19z"/>
<path d="M526 333 c-6 -14 -5 -15 5 -6 7 7 10 15 7 18 -3 3 -9 -2 -12 -12z"/>
<path d="M338 913 c6 -2 18 -2 25 0 6 3 1 5 -13 5 -14 0 -19 -2 -12 -5z"/>
<path d="M348 793 c7 -3 16 -2 19 1 4 3 -2 6 -13 5 -11 0 -14 -3 -6 -6z"/>
<path d="M348 743 c7 -3 16 -2 19 1 4 3 -2 6 -13 5 -11 0 -14 -3 -6 -6z"/>
<path d="M368 593 c7 -3 16 -2 19 1 4 3 -2 6 -13 5 -11 0 -14 -3 -6 -6z"/>
<path d="M360 556 c0 -2 9 -6 20 -9 11 -3 20 -1 20 4 0 5 -9 9 -20 9 -11 0
-20 -2 -20 -4z"/>
<path d="M400 509 c0 -6 -7 -8 -16 -5 -13 5 -14 4 -6 -7 7 -8 9 -17 5 -21 -4
-4 -1 -4 8 -1 13 5 25 45 13 45 -2 0 -4 -5 -4 -11z"/>
<path d="M397 464 c-11 -11 3 -24 18 -17 8 3 15 0 15 -6 0 -6 -5 -11 -10 -11
-6 0 -5 -8 2 -20 14 -21 18 -20 23 7 1 10 -4 26 -13 36 -16 18 -25 21 -35 11z"/>
<path d="M625 239 c-4 -6 -5 -12 -2 -15 2 -3 7 2 10 11 7 17 1 20 -8 4z"/>
<path d="M545 220 c-30 -8 -30 -8 8 -9 23 -1 36 3 32 9 -3 6 -7 9 -8 9 -1 -1
-15 -5 -32 -9z"/>
<path d="M658 218 c5 -5 16 -8 23 -6 8 3 3 7 -10 11 -17 4 -21 3 -13 -5z"/>
<path d="M415 210 c-3 -6 1 -7 9 -4 18 7 21 14 7 14 -6 0 -13 -4 -16 -10z"/>
<path d="M460 210 c-12 -8 -11 -10 8 -10 12 0 22 5 22 10 0 13 -11 13 -30 0z"/>
<path d="M708 209 c12 -12 75 -22 68 -11 -3 5 -22 12 -41 14 -19 2 -32 1 -27
-3z"/>
</g>
</svg>
